{
	"asset":{
		"generator":"Khronos glTF Blender I/O v4.5.49",
		"version":"2.0"
	},
	"scene":0,
	"scenes":[
		{
			"name":"Scene",
			"nodes":[
				5
			]
		}
	],
	"nodes":[
		{
			"mesh":0,
			"name":"Mesh_65"
		},
		{
			"mesh":1,
			"name":"Mesh_66"
		},
		{
			"mesh":2,
			"name":"Mesh_67"
		},
		{
			"mesh":3,
			"name":"Mesh_68"
		},
		{
			"children":[
				0,
				1,
				2,
				3
			],
			"name":"Building Sea-Tac Airport North Satellite"
		},
		{
			"children":[
				4
			],
			"name":"OSM2World scene"
		}
	],
	"materials":[
		{
	      "name": "Plaster002",
	      "normalTexture": {
	        "index": 0
	      },
	      "occlusionTexture": {
	        "index": 1
	      },
	      "pbrMetallicRoughness": {
	        "baseColorTexture": {
	          "index": 2
	        },
	        "metallicRoughnessTexture": {
	          "index": 1
	        },
	        "baseColorFactor": [
	          1.0,
	          1.0,
	          1.0,
	          1.0
	        ],
	        "roughnessFactor": 0.8
	      },
	      "emissiveFactor": [
	        0.01,
	        0.009,
	        0.006
	      ]
	    },
	    {
	      "name": "RoofingTiles010",
	      "normalTexture": {
	        "index": 3
	      },
	      "occlusionTexture": {
	        "index": 4
	      },
	      "pbrMetallicRoughness": {
	        "baseColorTexture": {
	          "index": 5
	        },
	        "metallicRoughnessTexture": {
	          "index": 4
	        },
	        "baseColorFactor": [
	          1.0,
	          1.0,
	          1.0,
	          1.0
	        ],
	        "roughnessFactor": 0.8
	      },
	      "emissiveFactor": [
	        0.01,
	        0.0045,
	        0.006
	      ]
	    },
		{
			"name":"Plastic010",
			"normalTexture":{
				"index":6
			},
			"occlusionTexture":{
				"index":7
			},
			"pbrMetallicRoughness":{
				"baseColorTexture":{
					"index":8
				},
				"metallicRoughnessTexture":{
					"index":7
          		},
          "baseColorFactor": [
            1.0,
            1.0,
            1.0,
            1.0
          ],
          "roughnessFactor": 0.8
        },
        "emissiveFactor": [
          0.01,
          0.009,
          0.006
        ]
      },
		{
			"name":"GLASS",
			"normalTexture":{
				"index":9
			},
			"occlusionTexture":{
				"index":10
			},
			"pbrMetallicRoughness":{
				"baseColorTexture":{
					"index":11
				},
				"metallicRoughnessTexture":{
					"index":10
          },
          "baseColorFactor": [
            1.0,
            1.0,
            1.0,
            1.0
          ],
          "roughnessFactor": 0.8
        },
        "emissiveFactor": [
          0.01,
          0.009,
          0.006
        ]
      }
	],
	"meshes":[
		{
			"name":"Mesh_65",
			"primitives":[
				{
					"attributes":{
						"POSITION":0,
						"NORMAL":1,
						"TEXCOORD_0":2,
						"COLOR_0":3
					},
					"indices":4,
					"material":0
				}
			]
		},
		{
			"name":"Mesh_66",
			"primitives":[
				{
					"attributes":{
						"POSITION":5,
						"NORMAL":6,
						"TEXCOORD_0":7,
						"COLOR_0":8
					},
					"indices":9,
					"material":1
				}
			]
		},
		{
			"name":"Mesh_67",
			"primitives":[
				{
					"attributes":{
						"POSITION":10,
						"NORMAL":11,
						"TEXCOORD_0":12,
						"COLOR_0":13
					},
					"indices":14,
					"material":2
				}
			]
		},
		{
			"name":"Mesh_68",
			"primitives":[
				{
					"attributes":{
						"POSITION":15,
						"NORMAL":16,
						"TEXCOORD_0":17
					},
					"indices":18,
					"material":3
				}
			]
		}
	],
	"textures":[
		{
			"sampler":0,
			"source":0
		},
		{
			"sampler":0,
			"source":1
		},
		{
			"sampler":0,
			"source":2
		},
		{
			"sampler":0,
			"source":3
		},
		{
			"sampler":0,
			"source":4
		},
		{
			"sampler":0,
			"source":5
		},
		{
			"sampler":0,
			"source":6
		},
		{
			"sampler":0,
			"source":7
		},
		{
			"sampler":0,
			"source":8
		},
		{
			"sampler":0,
			"source":9
		},
		{
			"sampler":0,
			"source":10
		},
		{
			"sampler":0,
			"source":11
		}
	],
	"images":[
		{
			"mimeType":"image/jpeg",
			"name":"Image_9",
			"uri":"https://cdn.jsdelivr.net/gh/greenairways/KSEA-models-for-GeoFS-Airport-Buildings-Addon@latest/Image_9.jpg"
		},
		{
			"mimeType":"image/jpeg",
			"name":"Image_8",
			"uri":"https://cdn.jsdelivr.net/gh/greenairways/KSEA-models-for-GeoFS-Airport-Buildings-Addon@latest/Image_8.jpg"
		},
		{
			"mimeType":"image/jpeg",
			"name":"Image_7",
			"uri":"https://cdn.jsdelivr.net/gh/greenairways/KSEA-models-for-GeoFS-Airport-Buildings-Addon@latest/Image_7.jpg"
		},
		{
			"mimeType":"image/jpeg",
			"name":"Image_12",
			"uri":"https://cdn.jsdelivr.net/gh/greenairways/KSEA-models-for-GeoFS-Airport-Buildings-Addon@latest/Image_12.jpg"
		},
		{
			"mimeType":"image/jpeg",
			"name":"Image_11",
			"uri":"https://cdn.jsdelivr.net/gh/greenairways/KSEA-models-for-GeoFS-Airport-Buildings-Addon@latest/Image_11.jpg"
		},
		{
			"mimeType":"image/jpeg",
			"name":"Image_10",
			"uri":"https://cdn.jsdelivr.net/gh/greenairways/KSEA-models-for-GeoFS-Airport-Buildings-Addon@latest/Image_10.jpg"
		},
		{
			"mimeType":"image/jpeg",
			"name":"Image_15",
			"uri":"https://cdn.jsdelivr.net/gh/greenairways/KSEA-models-for-GeoFS-Airport-Buildings-Addon@latest/Image_15.jpg"
		},
		{
			"mimeType":"image/jpeg",
			"name":"Image_14",
			"uri":"https://cdn.jsdelivr.net/gh/greenairways/KSEA-models-for-GeoFS-Airport-Buildings-Addon@latest/Image_14.jpg"
		},
		{
			"mimeType":"image/jpeg",
			"name":"Image_13",
			"uri":"https://cdn.jsdelivr.net/gh/greenairways/KSEA-models-for-GeoFS-Airport-Buildings-Addon@latest/Image_13.jpg"
		},
		{
			"mimeType":"image/jpeg",
			"name":"Image_18",
			"uri":"https://cdn.jsdelivr.net/gh/greenairways/KSEA-models-for-GeoFS-Airport-Buildings-Addon@latest/Image_18.jpg"
		},
		{
			"mimeType":"image/jpeg",
			"name":"Image_17",
			"uri":"https://cdn.jsdelivr.net/gh/greenairways/KSEA-models-for-GeoFS-Airport-Buildings-Addon@latest/Image_17.jpg"
		},
		{
			"mimeType":"image/jpeg",
			"name":"Image_16",
			"uri":"https://cdn.jsdelivr.net/gh/greenairways/KSEA-models-for-GeoFS-Airport-Buildings-Addon@latest/Image_16.jpg"
		}
	],
	"accessors":[
		{
			"bufferView":0,
			"componentType":5126,
			"count":22530,
			"max":[
				104.1050033569336,
				5,
				95.6780014038086
			],
			"min":[
				-103.93099975585938,
				0,
				-94.31099700927734
			],
			"type":"VEC3"
		},
		{
			"bufferView":1,
			"componentType":5126,
			"count":22530,
			"type":"VEC3"
		},
		{
			"bufferView":2,
			"componentType":5126,
			"count":22530,
			"type":"VEC2"
		},
		{
			"bufferView":3,
			"componentType":5126,
			"count":22530,
			"type":"VEC3"
		},
		{
			"bufferView":4,
			"componentType":5123,
			"count":22530,
			"type":"SCALAR"
		},
		{
			"bufferView":5,
			"componentType":5126,
			"count":237,
			"max":[
				104.1050033569336,
				5,
				95.6780014038086
			],
			"min":[
				-103.93099975585938,
				5,
				-94.31099700927734
			],
			"type":"VEC3"
		},
		{
			"bufferView":6,
			"componentType":5126,
			"count":237,
			"type":"VEC3"
		},
		{
			"bufferView":7,
			"componentType":5126,
			"count":237,
			"type":"VEC2"
		},
		{
			"bufferView":8,
			"componentType":5126,
			"count":237,
			"type":"VEC3"
		},
		{
			"bufferView":9,
			"componentType":5123,
			"count":237,
			"type":"SCALAR"
		},
		{
			"bufferView":10,
			"componentType":5126,
			"count":28416,
			"max":[
				103.73611450195312,
				4.5,
				95.30873107910156
			],
			"min":[
				-103.55522155761719,
				0.75,
				-93.94580078125
			],
			"type":"VEC3"
		},
		{
			"bufferView":11,
			"componentType":5126,
			"count":28416,
			"type":"VEC3"
		},
		{
			"bufferView":12,
			"componentType":5126,
			"count":28416,
			"type":"VEC2"
		},
		{
			"bufferView":13,
			"componentType":5126,
			"count":28416,
			"type":"VEC3"
		},
		{
			"bufferView":14,
			"componentType":5123,
			"count":28416,
			"type":"SCALAR"
		},
		{
			"bufferView":15,
			"componentType":5126,
			"count":3552,
			"max":[
				103.68804168701172,
				4.480478286743164,
				95.26061248779297
			],
			"min":[
				-103.5069580078125,
				0.7695217728614807,
				-93.89755249023438
			],
			"type":"VEC3"
		},
		{
			"bufferView":16,
			"componentType":5126,
			"count":3552,
			"type":"VEC3"
		},
		{
			"bufferView":17,
			"componentType":5126,
			"count":3552,
			"type":"VEC2"
		},
		{
			"bufferView":18,
			"componentType":5123,
			"count":3552,
			"type":"SCALAR"
		}
	],
	"bufferViews":[
		{
			"buffer":0,
			"byteLength":270360,
			"byteOffset":0,
			"target":34962
		},
		{
			"buffer":0,
			"byteLength":270360,
			"byteOffset":270360,
			"target":34962
		},
		{
			"buffer":0,
			"byteLength":180240,
			"byteOffset":540720,
			"target":34962
		},
		{
			"buffer":0,
			"byteLength":270360,
			"byteOffset":720960,
			"target":34962
		},
		{
			"buffer":0,
			"byteLength":45060,
			"byteOffset":991320,
			"target":34963
		},
		{
			"buffer":0,
			"byteLength":2844,
			"byteOffset":1036380,
			"target":34962
		},
		{
			"buffer":0,
			"byteLength":2844,
			"byteOffset":1039224,
			"target":34962
		},
		{
			"buffer":0,
			"byteLength":1896,
			"byteOffset":1042068,
			"target":34962
		},
		{
			"buffer":0,
			"byteLength":2844,
			"byteOffset":1043964,
			"target":34962
		},
		{
			"buffer":0,
			"byteLength":474,
			"byteOffset":1046808,
			"target":34963
		},
		{
			"buffer":0,
			"byteLength":340992,
			"byteOffset":1047284,
			"target":34962
		},
		{
			"buffer":0,
			"byteLength":340992,
			"byteOffset":1388276,
			"target":34962
		},
		{
			"buffer":0,
			"byteLength":227328,
			"byteOffset":1729268,
			"target":34962
		},
		{
			"buffer":0,
			"byteLength":340992,
			"byteOffset":1956596,
			"target":34962
		},
		{
			"buffer":0,
			"byteLength":56832,
			"byteOffset":2297588,
			"target":34963
		},
		{
			"buffer":0,
			"byteLength":42624,
			"byteOffset":2354420,
			"target":34962
		},
		{
			"buffer":0,
			"byteLength":42624,
			"byteOffset":2397044,
			"target":34962
		},
		{
			"buffer":0,
			"byteLength":28416,
			"byteOffset":2439668,
			"target":34962
		},
		{
			"buffer":0,
			"byteLength":7104,
			"byteOffset":2468084,
			"target":34963
		}
	],
	"samplers":[
		{
			"magFilter":9729,
			"minFilter":9987
		}
	],
	"buffers":[
		{
			"byteLength":2475188,
			"uri":"KSEA.bin"
		}
	]
}
